# xmcd
#
# Track frame offsets:
# 150
# 18082
# 35520
# 54517
# 71115
# 88977
# 103790
# 120657
# 137340
# 156507
# 175375
# 193307
# 210745
# 229740
# 246340
# 264202
# 279015
# 295882
# 312565
# 331732
#
# Disc length: 4674 seconds
#
#
# Revision: 1
# Processed by: cddbd v1.5.1PL2 Copyright (c) Steve Scherf et al.
# Submitted via: FreeRIP 2.60 
#
DISCID=28124014
DTITLE=Various Artist - THM C0506
DYEAR=2005
DGENRE=Karaoke
TTITLE0=Bobby Pinson - Don't Ask Me How I Know(vocals)
TTITLE1=Travis Tritt - I See Me(vocals)
TTITLE2=Darryl Worley - If Something Should Happen(vocals)
TTITLE3=George Canyon - My Name(vocals)
TTITLE4=Hanna-McEuen - Something Like A Broken Heart(vocals)
TTITLE5=Brian McComas - The Middle Of Nowhere(vocals)
TTITLE6=Pat Green - Baby Doll(vocals)
TTITLE7=Katrina Elam - I Want A Cowboy(vocals)
TTITLE8=Amy Dalley - I Would Cry(vocals)
TTITLE9=Keith Urban - Making Memories Of Us
TTITLE10=Bobby Pinson - Don't Ask Me How I Know
TTITLE11=Travis Tritt - I See Me
TTITLE12=Darryl Worley - If Something Should Happen
TTITLE13=George Canyon - My Name
TTITLE14=Hanna-McEuen - Something Like A Broken Heart
TTITLE15=Brian McComas - The Middle Of Nowhere
TTITLE16=Pat Green - Baby Doll
TTITLE17=Katrina Elam - I Want A Cowboy
TTITLE18=Amy Dalley - I Would Cry
TTITLE19=Keith Urban - Making Memories Of Us
EXTD=
EXTT0=
EXTT1=
EXTT2=
EXTT3=
EXTT4=
EXTT5=
EXTT6=
EXTT7=
EXTT8=
EXTT9=
EXTT10=
EXTT11=
EXTT12=
EXTT13=
EXTT14=
EXTT15=
EXTT16=
EXTT17=
EXTT18=
EXTT19=
PLAYORDER=
